<?xml version="1.0" encoding="iso-8859-1"?>
<!-- Generator: Adobe Illustrator 19.0.0, SVG Export Plug-In . SVG Version: 6.00 Build 0)  -->
<svg version="1.1" id="Layer_1" xmlns="http://www.w3.org/2000/svg" xmlns:xlink="http://www.w3.org/1999/xlink" x="0px" y="0px"
	 viewBox="0 0 512 512" style="enable-background:new 0 0 512 512;" xml:space="preserve">
<g>
	<path style="fill:#546A79;" d="M357.275,295.385c15.54,0,28.132,12.592,28.132,28.132s-12.592,28.132-28.132,28.132
		s-28.132-12.592-28.132-28.132S341.735,295.385,357.275,295.385z"/>
	<path style="fill:#546A79;" d="M256,295.385c15.54,0,28.132,12.592,28.132,28.132S271.54,351.648,256,351.648
		s-28.132-12.592-28.132-28.132S240.46,295.385,256,295.385z"/>
	<path style="fill:#546A79;" d="M154.725,295.385c15.54,0,28.132,12.592,28.132,28.132s-12.592,28.132-28.132,28.132
		s-28.132-12.592-28.132-28.132S139.185,295.385,154.725,295.385z"/>
	<polygon style="fill:#546A79;" points="317.89,447.297 306.637,503.56 205.363,503.56 194.11,447.297 	"/>
</g>
<rect x="165.978" y="154.725" style="fill:#E7ECED;" width="180.044" height="95.648"/>
<polygon style="fill:#546A79;" points="379.78,115.341 379.78,250.374 346.022,250.374 346.022,154.725 165.978,154.725 
	165.978,250.374 132.22,250.374 132.22,115.341 "/>
<path style="fill:#AFB6BB;" d="M222.242,53.451V8.44h67.516v45.011h73.143c3.072,0,5.626-2.734,5.626-2.734l31.823-31.823
	l47.745,47.745l-24.632,24.632c4.411,8.968,6.954,19.028,6.954,29.696V379.78c0,37.292-30.225,67.516-67.516,67.516H317.89H194.11
	h-45.011c-37.292,0-67.516-30.225-67.516-67.516V120.967c0-10.668,2.543-20.728,6.954-29.696L63.904,66.639l47.745-47.745
	l31.823,31.823c0,0,2.554,2.734,5.626,2.734H222.242z M379.78,250.374V115.341H132.22v135.033h33.758h180.044H379.78z
	 M385.407,323.517c0-15.54-12.592-28.132-28.132-28.132s-28.132,12.592-28.132,28.132s12.592,28.132,28.132,28.132
	S385.407,339.057,385.407,323.517z M284.132,323.517c0-15.54-12.592-28.132-28.132-28.132s-28.132,12.592-28.132,28.132
	S240.46,351.648,256,351.648S284.132,339.057,284.132,323.517z M182.857,323.517c0-15.54-12.592-28.132-28.132-28.132
	s-28.132,12.592-28.132,28.132s12.592,28.132,28.132,28.132S182.857,339.057,182.857,323.517z"/>
<g>
	<path style="fill:#231F20;" d="M460.03,66.639l-59.68-59.68l-37.791,37.79l0.034-0.071l-0.17,0.203
		c-0.051,0.044-0.109,0.09-0.167,0.132h-64.058V0h-84.396v45.011h-64.06c-0.071-0.053-0.146-0.111-0.205-0.164L111.65,6.959
		l-59.68,59.68l26.506,26.506c-3.541,8.899-5.333,18.231-5.333,27.822V379.78c0,41.883,34.073,75.956,75.956,75.956h38.092
		L198.443,512h115.112l11.253-56.264h38.093c41.883,0,75.956-34.073,75.956-75.956V120.967c0-9.592-1.791-18.924-5.332-27.822
		L460.03,66.639z M299.719,495.121h-87.437l-7.877-39.385h103.191L299.719,495.121z M421.978,379.78
		c0,32.576-26.502,59.077-59.077,59.077H149.099c-32.574,0-59.077-26.501-59.077-59.077V120.967c0-9.02,2.048-17.758,6.088-25.971
		l2.666-5.42L75.839,66.639l35.811-35.811l25.791,25.791c1.121,1.159,5.534,5.271,11.658,5.271H256V45.011h-25.319V16.879h50.637
		V61.89h81.582c6.123,0,10.537-4.113,11.657-5.27l25.792-25.791l35.81,35.811l-22.936,22.935l2.666,5.42
		c4.04,8.213,6.088,16.951,6.088,25.971V379.78H421.978z"/>
	<path style="fill:#231F20;" d="M388.22,106.901H123.78v151.912h264.44V106.901z M337.582,241.934H174.418v-78.769h163.165V241.934z
		 M371.341,241.934h-16.879v-95.648H157.538v95.648h-16.879V123.78h230.681V241.934z"/>
	<path style="fill:#231F20;" d="M256,286.945c-20.166,0-36.571,16.406-36.571,36.571c0,20.165,16.405,36.571,36.571,36.571
		c20.166,0,36.571-16.406,36.571-36.571C292.571,303.352,276.166,286.945,256,286.945z M256,343.209
		c-10.858,0-19.692-8.835-19.692-19.692c0-10.858,8.835-19.692,19.692-19.692c10.858,0,19.692,8.835,19.692,19.692
		C275.692,334.374,266.858,343.209,256,343.209z"/>
	<path style="fill:#231F20;" d="M357.275,286.945c-20.166,0-36.571,16.406-36.571,36.571c0,20.165,16.405,36.571,36.571,36.571
		c20.166,0,36.571-16.406,36.571-36.571C393.846,303.352,377.441,286.945,357.275,286.945z M357.275,343.209
		c-10.858,0-19.692-8.835-19.692-19.692c0-10.858,8.835-19.692,19.692-19.692c10.858,0,19.692,8.835,19.692,19.692
		C376.967,334.374,368.133,343.209,357.275,343.209z"/>
	<path style="fill:#231F20;" d="M191.297,323.517c0-20.165-16.405-36.571-36.571-36.571s-36.571,16.406-36.571,36.571
		c0,20.165,16.405,36.571,36.571,36.571S191.297,343.681,191.297,323.517z M154.725,343.209c-10.858,0-19.692-8.835-19.692-19.692
		c0-10.858,8.835-19.692,19.692-19.692c10.858,0,19.692,8.835,19.692,19.692C174.418,334.374,165.583,343.209,154.725,343.209z"/>
	<rect x="227.868" y="388.22" style="fill:#231F20;" width="56.264" height="16.879"/>
	<rect x="306.637" y="388.22" style="fill:#231F20;" width="28.132" height="16.879"/>
	<rect x="177.231" y="388.22" style="fill:#231F20;" width="28.132" height="16.879"/>
</g>
<g>
</g>
<g>
</g>
<g>
</g>
<g>
</g>
<g>
</g>
<g>
</g>
<g>
</g>
<g>
</g>
<g>
</g>
<g>
</g>
<g>
</g>
<g>
</g>
<g>
</g>
<g>
</g>
<g>
</g>
</svg>
